<svg width="24px" height="24px" viewBox="0 0 24 24" fill="none" xmlns="http://www.w3.org/2000/svg">
<path fill-rule="evenodd" clip-rule="evenodd" d="M3 8V6C3 4.34315 4.34315 3 6 3H8V5H6C5.44772 5 5 5.44772 5 6V8H3Z" fill="#ffffff" />
<path fill-rule="evenodd" clip-rule="evenodd" d="M3 16V18C3 19.6569 4.34315 21 6 21H8V19H6C5.44772 19 5 18.5523 5 18V16H3Z" fill="#ffffff" />
<path fill-rule="evenodd" clip-rule="evenodd" d="M21 8V6C21 4.34315 19.6569 3 18 3H16V5H18C18.5523 5 19 5.44772 19 6V8H21Z" fill="#ffffff" />
<path fill-rule="evenodd" clip-rule="evenodd" d="M21 16V18C21 19.6569 19.6569 21 18 21H16V19H18C18.5523 19 19 18.5523 19 18V16H21Z" fill="#ffffff" />
<rect x="7" y="7" width="10" height="10" rx="1.5" stroke="#ffffff" stroke-width="2" />
<rect x="10.5" y="10.5" width="3" height="3" rx="0.5" fill="#ffffff" />
</svg>